<svg width="175" height="51" viewBox="0 0 175 51" fill="none" xmlns="http://www.w3.org/2000/svg">
<g clip-path="url(#clip0_754_1889)">
<mask id="mask0_754_1889" style="mask-type:luminance" maskUnits="userSpaceOnUse" x="0" y="0" width="175" height="52">
<path d="M0 0H175V50.5007L0 51.0002V0Z" fill="white"/>
</mask>
<g mask="url(#mask0_754_1889)">
<path d="M73.624 19.688V9.512C73.624 7.256 75.04 5.96 77.56 5.96C80.056 5.96 81.496 7.256 81.496 9.512V19.688C81.496 21.944 80.056 23.24 77.56 23.24C75.04 23.24 73.624 21.944 73.624 19.688ZM76.384 9.32V19.88C76.384 20.6 76.792 21.08 77.56 21.08C78.328 21.08 78.736 20.6 78.736 19.88V9.32C78.736 8.6 78.328 8.12 77.56 8.12C76.792 8.12 76.384 8.6 76.384 9.32ZM88.8372 13.52V15.68H85.5972V23H82.8372V6.2H89.0772V8.36H85.5972V13.52H88.8372ZM95.9153 13.52V15.68H92.6753V23H89.9153V6.2H96.1553V8.36H92.6753V13.52H95.9153ZM99.7774 23H97.0174V6.2H99.7774V23ZM103.9 9.32V19.88C103.9 20.6 104.308 21.08 105.076 21.08C105.844 21.08 106.252 20.6 106.252 19.88V14.696L109.012 14.024V19.688C109.012 21.944 107.572 23.24 105.076 23.24C102.556 23.24 101.14 21.944 101.14 19.688V9.512C101.14 7.256 102.556 5.96 105.076 5.96C107.572 5.96 109.012 7.256 109.012 9.512V12.296L106.252 12.992V9.32C106.252 8.6 105.844 8.12 105.076 8.12C104.308 8.12 103.9 8.6 103.9 9.32ZM113.137 23H110.377V6.2H113.137V23ZM118.363 8.528L117.523 16.76H119.395L118.555 8.528H118.363ZM122.899 23H120.043L119.635 19.016H117.283L116.875 23H114.019L116.107 6.2H120.811L122.899 23ZM126.496 6.2V20.84H129.736V23H123.736V6.2H126.496ZM73.624 42.688V32.512C73.624 30.256 75.04 28.96 77.56 28.96C80.056 28.96 81.496 30.256 81.496 32.512V42.688C81.496 44.944 80.056 46.24 77.56 46.24C75.04 46.24 73.624 44.944 73.624 42.688ZM76.384 32.32V42.88C76.384 43.6 76.792 44.08 77.56 44.08C78.328 44.08 78.736 43.6 78.736 42.88V32.32C78.736 31.6 78.328 31.12 77.56 31.12C76.792 31.12 76.384 31.6 76.384 32.32ZM85.5492 46H83.0292V31L82.2372 29.2H84.6852L88.9812 39.4H89.1012V29.2H91.6212V46H89.6532L85.6692 36.784H85.5492V46ZM95.8394 29.2V43.84H99.0794V46H93.0794V29.2H95.8394ZM102.731 46H99.9706V29.2H102.731V46ZM106.901 46H104.381V31L103.589 29.2H106.037L110.333 39.4H110.453V29.2H112.973V46H111.005L107.021 36.784H106.901V46ZM120.431 36.52V38.68H117.191V43.84H120.671V46H114.431V29.2H120.671V31.36H117.191V36.52H120.431ZM128.676 42.88V39.712C128.676 39.352 128.604 39.184 128.172 39.088L126.3 38.656C124.236 38.176 123.564 37.216 123.564 34.984V32.512C123.564 30.256 124.98 28.96 127.5 28.96C129.996 28.96 131.436 30.256 131.436 32.512V34.36L128.676 34.816V32.32C128.676 31.6 128.268 31.12 127.5 31.12C126.732 31.12 126.324 31.6 126.324 32.32V35.44C126.324 35.8 126.396 35.968 126.828 36.064L128.676 36.496C130.764 36.976 131.436 37.96 131.436 40.168V42.688C131.436 44.944 129.996 46.24 127.5 46.24C124.98 46.24 123.564 44.944 123.564 42.688V39.952H126.324V42.88C126.324 43.6 126.732 44.08 127.5 44.08C128.268 44.08 128.676 43.6 128.676 42.88ZM140.06 31.36H137.372V46H134.612V31.36H131.948V29.2H140.06V31.36ZM140.515 42.688V32.512C140.515 30.256 141.931 28.96 144.451 28.96C146.947 28.96 148.387 30.256 148.387 32.512V42.688C148.387 44.944 146.947 46.24 144.451 46.24C141.931 46.24 140.515 44.944 140.515 42.688ZM143.275 32.32V42.88C143.275 43.6 143.683 44.08 144.451 44.08C145.219 44.08 145.627 43.6 145.627 42.88V32.32C145.627 31.6 145.219 31.12 144.451 31.12C143.683 31.12 143.275 31.6 143.275 32.32ZM152.224 36.808L153.304 36.544C154.168 36.352 154.84 36.184 154.84 34.816V33.136C154.84 31.888 154.336 31.36 153.04 31.36H152.488V35.728C152.488 36.256 152.464 36.496 152.2 36.784L152.224 36.808ZM154.72 46V40.12C154.72 39.232 154.384 38.8 153.688 38.8C153.544 38.8 153.376 38.824 153.16 38.872L152.488 39.04V46H149.728V29.2H153.64C156.424 29.2 157.6 30.616 157.6 33.016V33.592C157.6 35.488 157.216 36.832 154.936 37.36L155.008 37.552C155.248 37.504 155.464 37.48 155.656 37.48C156.928 37.48 157.48 38.392 157.48 39.904V46H154.72ZM164.798 36.52V38.68H161.558V43.84H165.038V46H158.798V29.2H165.038V31.36H161.558V36.52H164.798Z" fill="#13294B"/>
<path d="M50.2137 25.4749C50.2137 12.0257 39.2559 1.07737 25.7952 1.07737C12.3345 1.07737 1.37672 12.0262 1.37672 25.4749C1.37672 38.9235 12.3345 49.8724 25.7952 49.8724C39.2559 49.8724 50.2137 38.924 50.2137 25.4749ZM25.7952 0.0429688C39.8597 0.0429688 51.2486 11.4663 51.2486 25.4749C51.2486 39.4834 39.8587 50.9068 25.7952 50.9068C11.7317 50.9068 0.384277 39.4839 0.384277 25.4749C0.384277 11.4658 11.7736 0.0429688 25.7952 0.0429688Z" fill="#13294B"/>
<path d="M7.24414 25.4743C7.24414 15.2153 15.5708 6.89563 25.7954 6.89563C36.02 6.89563 44.3901 15.2153 44.3901 25.4743C44.3901 35.7334 36.0634 44.0101 25.7954 44.0101C15.5273 44.0101 7.24414 35.6904 7.24414 25.4743ZM25.7959 7.6723C16.0023 7.6723 8.02181 15.6468 8.02181 25.4743C8.02181 35.3019 16.0033 43.2334 25.7959 43.2334C35.5884 43.2334 43.6134 35.2589 43.6134 25.4743C43.6134 15.6898 35.6314 7.6723 25.7959 7.6723Z" fill="#13294B"/>
<path d="M29.808 14.6984V15.6469H30.4988C31.7504 15.6469 32.7419 16.6388 32.7419 17.845V27.5871C32.7419 27.6735 32.612 27.7594 32.5266 27.6735L21.6976 14.6989H15.0532V15.6474H15.3554C15.744 15.6474 16.1316 15.8192 16.3903 16.1213L16.7789 16.5519L17.7718 17.7591V32.846C17.7718 33.9668 16.9087 34.8289 15.7874 34.8289H15.0542V35.648H22.1726V34.8289H21.6117C20.3181 34.8289 19.2388 33.7945 19.2388 32.4579V19.699C19.2388 19.6126 19.3252 19.6126 19.3686 19.6556L33.2169 36.2084H34.1229V17.6297C34.1229 16.5089 35.0294 15.6469 36.1073 15.6469H36.5818V14.6984H29.808Z" fill="#13294B"/>
<path d="M63.404 5.51709H62.5V45.6249H63.404V5.51709Z" fill="#13294B"/>
</g>
</g>
<defs>
<clipPath id="clip0_754_1889">
<rect width="175" height="51.0002" fill="white"/>
</clipPath>
</defs>
</svg>
